<svg width="325" height="300" viewBox="0 0 325 300" fill="none" xmlns="http://www.w3.org/2000/svg">
<g filter="url(#filter0_d_1_17)">
<rect width="300" height="300" fill="#FEFF9C" style="fill:#FEFF9C;fill:color(display-p3 0.9961 1.0000 0.6118);fill-opacity:1;"/>
</g>
<path d="M104.234 72.5156C104.234 74.0469 103.984 75.7969 103.484 77.7656C103.016 79.7031 102.391 81.7969 101.609 84.0469C100.859 86.2656 99.9844 88.6094 98.9844 91.0781C97.9844 93.5156 96.9531 96.0156 95.8906 98.5781C94.8594 101.109 93.8438 103.656 92.8438 106.219C91.8438 108.75 90.9531 111.25 90.1719 113.719C89.4219 116.156 88.7969 118.516 88.2969 120.797C87.8281 123.078 87.5938 125.203 87.5938 127.172C87.5938 129.391 88.1562 131.172 89.2812 132.516C90.4062 133.859 92.2188 134.531 94.7188 134.531C96.7812 134.531 98.7656 134.047 100.672 133.078C102.578 132.109 104.469 130.672 106.344 128.766C108.25 126.828 110.172 124.422 112.109 121.547C114.078 118.672 116.141 115.328 118.297 111.516L120.734 107.203L122 108.094L119.562 112.406C117.219 116.562 115 120.172 112.906 123.234C110.812 126.297 108.734 128.844 106.672 130.875C104.641 132.875 102.547 134.359 100.391 135.328C98.2656 136.328 95.9844 136.828 93.5469 136.828C91.2031 136.828 89.2188 136.562 87.5938 136.031C85.9688 135.5 84.6406 134.75 83.6094 133.781C82.5781 132.781 81.8281 131.594 81.3594 130.219C80.9219 128.812 80.7031 127.25 80.7031 125.531C80.7031 124.031 80.9375 122.234 81.4062 120.141C81.9062 118.047 82.5625 115.781 83.375 113.344C84.1875 110.875 85.0938 108.281 86.0938 105.562C87.125 102.844 88.1719 100.109 89.2344 97.3594C90.3281 94.5781 91.375 91.8438 92.375 89.1562C93.4062 86.4375 94.3281 83.875 95.1406 81.4688C95.9531 79.0625 96.5938 76.8594 97.0625 74.8594C97.5625 72.8594 97.8125 71.1562 97.8125 69.75C97.8125 67.0938 97.125 65.0312 95.75 63.5625C94.4062 62.0938 92.6562 61.3594 90.5 61.3594C88.625 61.3594 86.7344 61.8906 84.8281 62.9531C82.9531 64.0156 81.0469 65.5625 79.1094 67.5938C77.2031 69.5938 75.25 72.0625 73.25 75C71.2812 77.9062 69.25 81.2031 67.1562 84.8906L64.8125 89.0156L48.0781 135.047H41.1406L59.6094 84.1406C59.8906 83.4531 60.2188 82.4844 60.5938 81.2344C61 79.9844 61.375 78.625 61.7188 77.1562C62.0938 75.6562 62.4062 74.1094 62.6562 72.5156C62.9375 70.8906 63.0781 69.375 63.0781 67.9688C63.0781 67.0312 63 66.1562 62.8438 65.3438C62.7188 64.5312 62.4844 63.8438 62.1406 63.2812C61.7969 62.6875 61.3438 62.2188 60.7812 61.875C60.25 61.5312 59.5781 61.3594 58.7656 61.3594C57.3906 61.3594 55.9375 61.8125 54.4062 62.7188C52.9062 63.5938 51.3594 64.9531 49.7656 66.7969C48.1719 68.6406 46.5469 70.9844 44.8906 73.8281C43.2656 76.6406 41.6562 79.9688 40.0625 83.8125L38.7969 82.9688C40.5156 78.7188 42.25 75.1094 44 72.1406C45.7812 69.1719 47.5625 66.7656 49.3438 64.9219C51.1562 63.0469 52.9531 61.6875 54.7344 60.8438C56.5469 60 58.3438 59.5781 60.125 59.5781C61.8438 59.5781 63.2656 59.9062 64.3906 60.5625C65.5469 61.2188 66.4531 62.125 67.1094 63.2812C67.7656 64.4062 68.2188 65.7344 68.4688 67.2656C68.75 68.7656 68.8906 70.375 68.8906 72.0938C68.8906 73.2812 68.7812 74.6562 68.5625 76.2188C68.3438 77.7812 68 79.4219 67.5312 81.1406C69.5938 77.6406 71.5938 74.5469 73.5312 71.8594C75.4688 69.1719 77.4062 66.9219 79.3438 65.1094C81.2812 63.2656 83.25 61.8906 85.25 60.9844C87.25 60.0469 89.3438 59.5781 91.5312 59.5781C93.25 59.5781 94.875 59.8594 96.4062 60.4219C97.9688 60.9844 99.3281 61.8125 100.484 62.9062C101.641 63.9688 102.547 65.3125 103.203 66.9375C103.891 68.5625 104.234 70.4219 104.234 72.5156ZM120.359 107.766C121.453 103.578 123.047 99.7031 125.141 96.1406C127.266 92.5781 129.688 89.5 132.406 86.9062C135.156 84.2812 138.125 82.2344 141.312 80.7656C144.531 79.2969 147.766 78.5625 151.016 78.5625C153.641 78.5625 155.844 79.0156 157.625 79.9219C159.438 80.7969 160.891 81.9844 161.984 83.4844C163.078 84.9844 163.859 86.7188 164.328 88.6875C164.797 90.6562 165.031 92.7188 165.031 94.875C165.031 97.2188 164.797 99.5625 164.328 101.906C163.891 104.25 163.312 106.484 162.594 108.609C162.156 109.953 161.656 111.25 161.094 112.5C160.531 113.75 159.938 114.969 159.312 116.156C159.75 117.188 160.391 118.031 161.234 118.688C162.078 119.312 163.25 119.625 164.75 119.625C165.625 119.625 166.562 119.484 167.562 119.203C168.562 118.922 169.562 118.469 170.562 117.844C171.594 117.188 172.594 116.344 173.562 115.312C174.562 114.281 175.484 113.016 176.328 111.516L178.766 107.203L180.031 108.094L177.594 112.406C176.406 114.5 175.188 116.156 173.938 117.375C172.719 118.562 171.531 119.469 170.375 120.094C169.219 120.719 168.125 121.125 167.094 121.312C166.094 121.469 165.234 121.547 164.516 121.547C163.047 121.547 161.734 121.359 160.578 120.984C159.422 120.578 158.391 120.047 157.484 119.391C155.922 121.891 154.188 124.156 152.281 126.188C150.406 128.219 148.422 129.953 146.328 131.391C144.234 132.828 142.062 133.938 139.812 134.719C137.594 135.5 135.375 135.891 133.156 135.891C130.938 135.891 128.938 135.5 127.156 134.719C125.406 133.906 123.922 132.75 122.703 131.25C121.484 129.75 120.547 127.922 119.891 125.766C119.234 123.578 118.906 121.125 118.906 118.406C118.906 116.688 119.031 114.938 119.281 113.156C119.531 111.344 119.891 109.547 120.359 107.766ZM133.859 133.547C135.672 133.547 137.5 133.141 139.344 132.328C141.219 131.484 143.047 130.297 144.828 128.766C146.641 127.234 148.375 125.391 150.031 123.234C151.719 121.047 153.266 118.625 154.672 115.969C154.297 115.25 154.016 114.516 153.828 113.766C153.672 112.984 153.594 112.188 153.594 111.375C153.594 110.469 153.719 109.578 153.969 108.703C154.219 107.797 154.594 106.969 155.094 106.219C155.625 105.438 156.281 104.734 157.062 104.109C157.875 103.484 158.812 102.984 159.875 102.609C160.344 100.859 160.734 99.0469 161.047 97.1719C161.359 95.2656 161.516 93.3906 161.516 91.5469C161.516 90.0469 161.375 88.625 161.094 87.2812C160.812 85.9062 160.328 84.7188 159.641 83.7188C158.984 82.7188 158.078 81.9219 156.922 81.3281C155.797 80.7344 154.391 80.4375 152.703 80.4375C150.266 80.4375 147.844 81.0938 145.438 82.4062C143.062 83.6875 140.797 85.5156 138.641 87.8906C136.516 90.2344 134.578 93.0469 132.828 96.3281C131.078 99.6094 129.625 103.234 128.469 107.203C127.688 109.859 127.078 112.531 126.641 115.219C126.234 117.875 126.031 120.297 126.031 122.484C126.031 129.859 128.641 133.547 133.859 133.547ZM175.062 79.4531H188.75L193.203 67.1719H200.141L195.688 79.4531H209.75V81.3281H194.984L183.734 112.266C183.297 113.484 182.859 114.734 182.422 116.016C182.016 117.297 181.641 118.562 181.297 119.812C180.984 121.031 180.719 122.219 180.5 123.375C180.312 124.5 180.219 125.531 180.219 126.469C180.219 128.625 180.797 130.344 181.953 131.625C183.141 132.906 184.922 133.547 187.297 133.547C189.609 133.547 191.859 133.109 194.047 132.234C196.234 131.359 198.391 130.016 200.516 128.203C202.641 126.391 204.75 124.109 206.844 121.359C208.938 118.578 211.047 115.297 213.172 111.516L215.609 107.203L216.875 108.094L214.438 112.406C211.969 116.781 209.578 120.469 207.266 123.469C204.953 126.438 202.656 128.844 200.375 130.688C198.125 132.531 195.828 133.859 193.484 134.672C191.172 135.484 188.766 135.891 186.266 135.891C184.359 135.891 182.672 135.594 181.203 135C179.734 134.438 178.516 133.625 177.547 132.562C176.547 131.5 175.797 130.219 175.297 128.719C174.766 127.219 174.5 125.547 174.5 123.703C174.5 122.078 174.688 120.297 175.062 118.359C175.438 116.422 176.016 114.391 176.797 112.266L188.047 81.3281H175.062V79.4531ZM231.641 135.891C225.984 135.891 221.625 134.422 218.562 131.484C215.5 128.516 213.969 124.109 213.969 118.266C213.969 116.672 214.094 114.984 214.344 113.203C214.562 111.422 214.922 109.594 215.422 107.719C216.547 103.531 218.125 99.6562 220.156 96.0938C222.219 92.5312 224.578 89.4531 227.234 86.8594C229.891 84.2656 232.75 82.2344 235.812 80.7656C238.875 79.2969 241.953 78.5625 245.047 78.5625C248.172 78.5625 250.625 79.2969 252.406 80.7656C254.219 82.2344 255.125 84.2969 255.125 86.9531C255.125 88.4531 254.828 89.9219 254.234 91.3594C253.641 92.7969 252.781 94.1562 251.656 95.4375C250.531 96.7188 249.172 97.9219 247.578 99.0469C246.016 100.141 244.25 101.094 242.281 101.906C239.844 102.938 237.156 103.719 234.219 104.25C231.281 104.75 227.938 105 224.188 105C223.281 107.531 222.562 110.172 222.031 112.922C221.531 115.641 221.281 118.422 221.281 121.266C221.281 125.609 222.188 128.75 224 130.688C225.844 132.594 228.734 133.547 232.672 133.547C235.953 133.547 239.078 132.922 242.047 131.672C245.016 130.391 247.766 128.719 250.297 126.656C252.828 124.594 255.141 122.25 257.234 119.625C259.328 116.969 261.156 114.266 262.719 111.516L265.156 107.203L266.422 108.094L263.984 112.406C262.047 115.812 259.922 118.953 257.609 121.828C255.328 124.703 252.828 127.188 250.109 129.281C247.422 131.344 244.531 132.969 241.438 134.156C238.375 135.312 235.109 135.891 231.641 135.891ZM246.359 80.4375C244.391 80.4375 242.375 81.0156 240.312 82.1719C238.281 83.3281 236.312 84.9375 234.406 87C232.5 89.0312 230.719 91.4375 229.062 94.2188C227.406 97 225.969 100.031 224.75 103.312C228.188 103.25 231.125 102.953 233.562 102.422C236 101.859 238.125 101.156 239.938 100.312C241.375 99.6562 242.766 98.8125 244.109 97.7812C245.484 96.7188 246.688 95.5156 247.719 94.1719C248.781 92.8281 249.625 91.375 250.25 89.8125C250.906 88.25 251.234 86.625 251.234 84.9375C251.234 84.0938 251.109 83.3906 250.859 82.8281C250.609 82.2656 250.266 81.8125 249.828 81.4688C249.391 81.0938 248.875 80.8281 248.281 80.6719C247.688 80.5156 247.047 80.4375 246.359 80.4375ZM114.031 188.266C115.875 186.453 117.531 184.562 119 182.594C120.5 180.594 121.766 178.625 122.797 176.688C123.859 174.75 124.672 172.891 125.234 171.109C125.797 169.328 126.078 167.703 126.078 166.234C126.078 165.609 126.016 165 125.891 164.406C125.766 163.812 125.531 163.297 125.188 162.859C124.875 162.391 124.438 162.031 123.875 161.781C123.344 161.5 122.656 161.359 121.812 161.359C120.031 161.359 118.219 161.969 116.375 163.188C114.562 164.406 112.812 166.172 111.125 168.484C109.812 170.266 108.609 172.281 107.516 174.531C106.453 176.75 105.422 179.125 104.422 181.656C103.422 184.188 102.438 186.828 101.469 189.578C100.5 192.328 99.4688 195.109 98.375 197.922C96.8438 201.859 95.3125 205.469 93.7812 208.75C92.2812 212.031 90.7344 215 89.1406 217.656C87.5781 220.312 85.9688 222.672 84.3125 224.734C82.6875 226.766 80.9844 228.531 79.2031 230.031C80.7031 230.469 82.3594 230.922 84.1719 231.391C86.0156 231.828 87.9375 232.234 89.9375 232.609C91.9375 232.984 93.9688 233.297 96.0312 233.547C98.0938 233.797 100.141 233.922 102.172 233.922C105.766 233.922 108.906 233.469 111.594 232.562C114.281 231.656 116.734 230.281 118.953 228.438C121.172 226.562 123.266 224.234 125.234 221.453C127.234 218.641 129.312 215.328 131.469 211.516L133.859 207.203L135.125 208.094L132.688 212.406C129.719 217.656 126.844 221.969 124.062 225.344C121.281 228.688 118.547 231.328 115.859 233.266C113.203 235.172 110.562 236.484 107.938 237.203C105.344 237.922 102.734 238.281 100.109 238.281C98.3281 238.281 96.4219 238.125 94.3906 237.812C92.3906 237.5 90.3281 237.078 88.2031 236.547C86.1094 236.047 83.9688 235.469 81.7812 234.812C79.5938 234.156 77.4375 233.5 75.3125 232.844C73 234.219 70.5938 235.219 68.0938 235.844C65.5938 236.5 62.9062 236.828 60.0312 236.828C58.0625 236.828 56.4531 236.688 55.2031 236.406C53.9844 236.156 53.0156 235.812 52.2969 235.375C51.5781 234.938 51.0781 234.438 50.7969 233.875C50.5469 233.312 50.4219 232.75 50.4219 232.188C50.4219 231.062 50.7812 230.156 51.5 229.469C52.2188 228.781 53.125 228.25 54.2188 227.875C55.3125 227.469 56.5156 227.203 57.8281 227.078C59.1406 226.922 60.3906 226.844 61.5781 226.844C64.1719 226.844 66.625 227.062 68.9375 227.5C71.2812 227.906 73.4375 228.375 75.4062 228.906C76.375 227.781 77.3281 226.469 78.2656 224.969C79.2344 223.469 80.2188 221.75 81.2188 219.812C82.25 217.844 83.3125 215.641 84.4062 213.203C85.5 210.734 86.6719 208 87.9219 205C89.8906 200.312 91.6562 195.984 93.2188 192.016C94.8125 188.016 96.3594 184.391 97.8594 181.141C99.3594 177.891 100.875 174.984 102.406 172.422C103.969 169.828 105.719 167.594 107.656 165.719C109.812 163.625 112.062 162.078 114.406 161.078C116.75 160.078 119.016 159.578 121.203 159.578C122.672 159.578 123.891 159.781 124.859 160.188C125.859 160.594 126.641 161.156 127.203 161.875C127.797 162.562 128.203 163.375 128.422 164.312C128.672 165.25 128.797 166.266 128.797 167.359C128.797 171.047 127.625 174.781 125.281 178.562C122.969 182.312 119.609 186.031 115.203 189.719L114.031 188.266ZM60.0781 235.141C62.6719 235.141 64.9375 234.906 66.875 234.438C68.8125 233.969 70.625 233.109 72.3125 231.859C71.2812 231.547 70.1875 231.234 69.0312 230.922C67.9062 230.578 66.7344 230.281 65.5156 230.031C64.2969 229.75 63.0625 229.531 61.8125 229.375C60.5938 229.188 59.3906 229.094 58.2031 229.094C56.3594 229.094 54.9062 229.344 53.8438 229.844C52.8125 230.312 52.2969 231.094 52.2969 232.188C52.2969 232.594 52.3906 232.984 52.5781 233.359C52.7969 233.703 53.1875 234.016 53.75 234.297C54.3125 234.547 55.0938 234.75 56.0938 234.906C57.125 235.062 58.4531 235.141 60.0781 235.141ZM143.984 179.453H150.922L138.969 212.266C138.531 213.484 138.094 214.734 137.656 216.016C137.219 217.266 136.828 218.516 136.484 219.766C136.172 220.984 135.906 222.172 135.688 223.328C135.5 224.453 135.406 225.5 135.406 226.469C135.406 228.625 135.969 230.344 137.094 231.625C138.25 232.906 140.031 233.547 142.438 233.547C144.531 233.547 146.547 233.094 148.484 232.188C150.453 231.281 152.391 229.922 154.297 228.109C156.234 226.266 158.172 223.969 160.109 221.219C162.047 218.438 164.062 215.203 166.156 211.516L168.594 207.203L169.859 208.094L167.422 212.406C165.141 216.438 162.953 219.938 160.859 222.906C158.797 225.844 156.719 228.281 154.625 230.219C152.562 232.125 150.453 233.547 148.297 234.484C146.141 235.422 143.844 235.891 141.406 235.891C139.5 235.891 137.812 235.594 136.344 235C134.906 234.438 133.703 233.625 132.734 232.562C131.734 231.5 130.984 230.219 130.484 228.719C129.984 227.219 129.734 225.547 129.734 223.703C129.734 222.078 129.938 220.297 130.344 218.359C130.719 216.422 131.281 214.391 132.031 212.266L143.984 179.453ZM147.734 167.172C147.734 166.078 148.109 165.141 148.859 164.359C149.641 163.578 150.578 163.188 151.672 163.188C152.766 163.188 153.688 163.578 154.438 164.359C155.219 165.109 155.609 166.031 155.609 167.125C155.609 167.656 155.5 168.172 155.281 168.672C155.094 169.141 154.812 169.547 154.438 169.891C154.094 170.234 153.672 170.516 153.172 170.734C152.703 170.922 152.188 171.016 151.625 171.016C150.531 171.016 149.609 170.656 148.859 169.938C148.109 169.188 147.734 168.266 147.734 167.172ZM162.406 222.297C162.406 220.703 162.578 219.125 162.922 217.562C163.266 215.969 163.734 214.484 164.328 213.109C164.922 211.734 165.609 210.516 166.391 209.453C167.172 208.359 168 207.5 168.875 206.875L188.656 178.094C189 175.562 189.594 173.531 190.438 172C191.281 170.469 192.297 169.703 193.484 169.703C194.422 169.703 195.203 169.953 195.828 170.453C196.453 170.953 196.766 171.562 196.766 172.281C196.766 172.812 196.641 173.281 196.391 173.688C196.141 174.094 195.703 174.562 195.078 175.094C194.359 175.688 193.75 176.25 193.25 176.781C192.781 177.312 192.391 177.844 192.078 178.375C191.766 178.906 191.547 179.469 191.422 180.062C191.297 180.656 191.234 181.297 191.234 181.984C191.234 182.672 191.281 183.391 191.375 184.141C191.5 184.891 191.703 185.844 191.984 187C192.266 188.156 192.656 189.594 193.156 191.312C193.688 193.031 194.359 195.203 195.172 197.828C195.984 200.453 196.578 202.953 196.953 205.328C197.359 207.703 197.562 210.016 197.562 212.266C197.562 220.859 194.453 227.375 188.234 231.812C186.391 233.125 184.391 234.141 182.234 234.859C180.109 235.547 177.953 235.891 175.766 235.891C173.703 235.891 171.844 235.578 170.188 234.953C168.531 234.297 167.141 233.391 166.016 232.234C164.859 231.047 163.969 229.625 163.344 227.969C162.719 226.281 162.406 224.391 162.406 222.297ZM188.375 181.469L171.641 205.891C172.641 205.891 173.438 206.219 174.031 206.875C174.625 207.531 174.922 208.406 174.922 209.5C174.922 210.062 174.844 210.609 174.688 211.141C174.531 211.641 174.312 212.078 174.031 212.453C173.75 212.828 173.422 213.141 173.047 213.391C172.672 213.609 172.281 213.719 171.875 213.719C171.344 213.719 170.891 213.609 170.516 213.391C170.141 213.172 169.672 213.062 169.109 213.062C168.453 213.062 167.844 213.297 167.281 213.766C166.688 214.203 166.188 214.828 165.781 215.641C165.344 216.453 165.016 217.422 164.797 218.547C164.547 219.641 164.422 220.844 164.422 222.156C164.422 223.906 164.672 225.484 165.172 226.891C165.641 228.297 166.344 229.5 167.281 230.5C168.188 231.469 169.281 232.219 170.562 232.75C171.875 233.281 173.359 233.547 175.016 233.547C177.203 233.547 179.234 233.078 181.109 232.141C182.984 231.203 184.625 229.844 186.031 228.062C189.406 223.75 191.094 217.25 191.094 208.562C191.094 207.5 191.062 206.453 191 205.422C190.969 204.359 190.891 203.266 190.766 202.141C190.672 200.984 190.531 199.75 190.344 198.438C190.156 197.125 189.938 195.641 189.688 193.984C189.25 191.203 188.922 188.875 188.703 187C188.484 185.125 188.375 183.609 188.375 182.453V181.469ZM213.031 179.453H226.719L231.172 167.172H238.109L233.656 179.453H247.719V181.328H232.953L221.703 212.266C221.266 213.484 220.828 214.734 220.391 216.016C219.984 217.297 219.609 218.562 219.266 219.812C218.953 221.031 218.688 222.219 218.469 223.375C218.281 224.5 218.188 225.531 218.188 226.469C218.188 228.625 218.766 230.344 219.922 231.625C221.109 232.906 222.891 233.547 225.266 233.547C227.578 233.547 229.828 233.109 232.016 232.234C234.203 231.359 236.359 230.016 238.484 228.203C240.609 226.391 242.719 224.109 244.812 221.359C246.906 218.578 249.016 215.297 251.141 211.516L253.578 207.203L254.844 208.094L252.406 212.406C249.938 216.781 247.547 220.469 245.234 223.469C242.922 226.438 240.625 228.844 238.344 230.688C236.094 232.531 233.797 233.859 231.453 234.672C229.141 235.484 226.734 235.891 224.234 235.891C222.328 235.891 220.641 235.594 219.172 235C217.703 234.438 216.484 233.625 215.516 232.562C214.516 231.5 213.766 230.219 213.266 228.719C212.734 227.219 212.469 225.547 212.469 223.703C212.469 222.078 212.656 220.297 213.031 218.359C213.406 216.422 213.984 214.391 214.766 212.266L226.016 181.328H213.031V179.453Z" fill="black" style="fill:black;fill-opacity:1;"/>
<g filter="url(#filter1_d_1_17)">
<ellipse cx="144.618" cy="28" rx="18.3824" ry="19.1176" fill="#9F3333" style="fill:#9F3333;fill:color(display-p3 0.6250 0.1983 0.1983);fill-opacity:1;"/>
<ellipse cx="132.38" cy="20.9952" rx="15.38" ry="15.9952" fill="#F03C3C" style="fill:#F03C3C;fill:color(display-p3 0.9423 0.2356 0.2356);fill-opacity:1;"/>
</g>
<defs>
<filter id="filter0_d_1_17" x="0" y="0" width="325" height="300" filterUnits="userSpaceOnUse" color-interpolation-filters="sRGB">
<feFlood flood-opacity="0" result="BackgroundImageFix"/>
<feColorMatrix in="SourceAlpha" type="matrix" values="0 0 0 0 0 0 0 0 0 0 0 0 0 0 0 0 0 0 127 0" result="hardAlpha"/>
<feOffset dx="25"/>
<feComposite in2="hardAlpha" operator="out"/>
<feColorMatrix type="matrix" values="0 0 0 0 0.637343 0 0 0 0 0.639423 0 0 0 0 0.433455 0 0 0 1 0"/>
<feBlend mode="normal" in2="BackgroundImageFix" result="effect1_dropShadow_1_17"/>
<feBlend mode="normal" in="SourceGraphic" in2="effect1_dropShadow_1_17" result="shape"/>
</filter>
<filter id="filter1_d_1_17" x="111" y="3" width="52" height="46.1176" filterUnits="userSpaceOnUse" color-interpolation-filters="sRGB">
<feFlood flood-opacity="0" result="BackgroundImageFix"/>
<feColorMatrix in="SourceAlpha" type="matrix" values="0 0 0 0 0 0 0 0 0 0 0 0 0 0 0 0 0 0 127 0" result="hardAlpha"/>
<feOffset dx="-4"/>
<feGaussianBlur stdDeviation="1"/>
<feComposite in2="hardAlpha" operator="out"/>
<feColorMatrix type="matrix" values="0 0 0 0 0 0 0 0 0 0 0 0 0 0 0 0 0 0 0.25 0"/>
<feBlend mode="normal" in2="BackgroundImageFix" result="effect1_dropShadow_1_17"/>
<feBlend mode="normal" in="SourceGraphic" in2="effect1_dropShadow_1_17" result="shape"/>
</filter>
</defs>
</svg>
